<mxfile host="65bd71144e" modified="2021-02-12T09:08:54.693Z" agent="5.0 (Macintosh; Intel Mac OS X 11_2_0) AppleWebKit/537.36 (KHTML, like Gecko) Code/1.53.1 Chrome/87.0.4280.141 Electron/11.2.1 Safari/537.36" version="14.2.4" etag="ato-h_bS4ZeXZBqka9zF" type="embed">
    <diagram id="gJLPqacedO71JgMYQs5W" name="Page-1">
        <mxGraphModel dx="1906" dy="1900" grid="1" gridSize="10" guides="1" tooltips="1" connect="1" arrows="1" fold="1" page="1" pageScale="1" pageWidth="850" pageHeight="1100" math="0" shadow="0">
            <root>
                <mxCell id="0"/>
                <mxCell id="1" parent="0"/>
                <mxCell id="9" value="" style="shape=hexagon;perimeter=hexagonPerimeter2;whiteSpace=wrap;html=1;fixedSize=1;strokeColor=#000000;strokeWidth=2;fillColor=#E9E7EF;" vertex="1" parent="1">
                    <mxGeometry x="360" y="190" width="90" height="80" as="geometry"/>
                </mxCell>
                <mxCell id="10" value="" style="shape=hexagon;perimeter=hexagonPerimeter2;whiteSpace=wrap;html=1;fixedSize=1;strokeColor=#000000;strokeWidth=2;fillColor=#B0B2BF;" vertex="1" parent="1">
                    <mxGeometry x="430" y="230" width="90" height="80" as="geometry"/>
                </mxCell>
                <mxCell id="11" value="" style="shape=hexagon;perimeter=hexagonPerimeter2;whiteSpace=wrap;html=1;fixedSize=1;strokeColor=#000000;strokeWidth=2;fillColor=#B2A0BB;" vertex="1" parent="1">
                    <mxGeometry x="430" y="150" width="90" height="80" as="geometry"/>
                </mxCell>
                <mxCell id="12" value="" style="shape=hexagon;perimeter=hexagonPerimeter2;whiteSpace=wrap;html=1;fixedSize=1;strokeColor=#000000;strokeWidth=2;fillColor=#B2A0BB;" vertex="1" parent="1">
                    <mxGeometry x="360" y="270" width="90" height="80" as="geometry"/>
                </mxCell>
                <mxCell id="13" value="" style="shape=hexagon;perimeter=hexagonPerimeter2;whiteSpace=wrap;html=1;fixedSize=1;strokeColor=#000000;strokeWidth=2;fillColor=#B0B2BF;" vertex="1" parent="1">
                    <mxGeometry x="290" y="230" width="90" height="80" as="geometry"/>
                </mxCell>
                <mxCell id="14" value="" style="shape=hexagon;perimeter=hexagonPerimeter2;whiteSpace=wrap;html=1;fixedSize=1;strokeColor=#000000;strokeWidth=2;fillColor=#B2A0BB;" vertex="1" parent="1">
                    <mxGeometry x="290" y="150" width="90" height="80" as="geometry"/>
                </mxCell>
                <mxCell id="15" value="" style="shape=hexagon;perimeter=hexagonPerimeter2;whiteSpace=wrap;html=1;fixedSize=1;strokeColor=#000000;strokeWidth=2;fillColor=#B0B2BF;" vertex="1" parent="1">
                    <mxGeometry x="360" y="110" width="90" height="80" as="geometry"/>
                </mxCell>
                <mxCell id="16" value="" style="shape=hexagon;perimeter=hexagonPerimeter2;whiteSpace=wrap;html=1;fixedSize=1;strokeColor=#000000;strokeWidth=2;fillColor=#B2A0BB;" vertex="1" parent="1">
                    <mxGeometry x="570" y="150" width="90" height="80" as="geometry"/>
                </mxCell>
                <mxCell id="17" value="" style="shape=hexagon;perimeter=hexagonPerimeter2;whiteSpace=wrap;html=1;fixedSize=1;strokeColor=#000000;strokeWidth=2;fillColor=#E9E7EF;" vertex="1" parent="1">
                    <mxGeometry x="640" y="190" width="90" height="80" as="geometry"/>
                </mxCell>
                <mxCell id="19" value="" style="shape=hexagon;perimeter=hexagonPerimeter2;whiteSpace=wrap;html=1;fixedSize=1;strokeColor=#000000;strokeWidth=2;fillColor=#B0B2BF;" vertex="1" parent="1">
                    <mxGeometry x="570" y="230" width="90" height="80" as="geometry"/>
                </mxCell>
                <mxCell id="20" value="" style="shape=hexagon;perimeter=hexagonPerimeter2;whiteSpace=wrap;html=1;fixedSize=1;strokeColor=#000000;strokeWidth=2;fillColor=#E9E7EF;" vertex="1" parent="1">
                    <mxGeometry x="500" y="190" width="90" height="80" as="geometry"/>
                </mxCell>
                <mxCell id="21" value="" style="shape=hexagon;perimeter=hexagonPerimeter2;whiteSpace=wrap;html=1;fixedSize=1;strokeColor=#000000;strokeWidth=2;fillColor=#B0B2BF;" vertex="1" parent="1">
                    <mxGeometry x="500" y="110" width="90" height="80" as="geometry"/>
                </mxCell>
                <mxCell id="23" value="" style="shape=hexagon;perimeter=hexagonPerimeter2;whiteSpace=wrap;html=1;fixedSize=1;strokeColor=#000000;strokeWidth=2;fillColor=#B0B2BF;" vertex="1" parent="1">
                    <mxGeometry x="500" y="350" width="90" height="80" as="geometry"/>
                </mxCell>
                <mxCell id="24" value="" style="shape=hexagon;perimeter=hexagonPerimeter2;whiteSpace=wrap;html=1;fixedSize=1;strokeColor=#000000;strokeWidth=2;fillColor=#B2A0BB;" vertex="1" parent="1">
                    <mxGeometry x="570" y="390" width="90" height="80" as="geometry"/>
                </mxCell>
                <mxCell id="25" value="" style="shape=hexagon;perimeter=hexagonPerimeter2;whiteSpace=wrap;html=1;fixedSize=1;strokeColor=#000000;strokeWidth=2;fillColor=#E9E7EF;" vertex="1" parent="1">
                    <mxGeometry x="570" y="310" width="90" height="80" as="geometry"/>
                </mxCell>
                <mxCell id="26" value="" style="shape=hexagon;perimeter=hexagonPerimeter2;whiteSpace=wrap;html=1;fixedSize=1;strokeColor=#000000;strokeWidth=2;fillColor=#E9E7EF;" vertex="1" parent="1">
                    <mxGeometry x="500" y="430" width="90" height="80" as="geometry"/>
                </mxCell>
                <mxCell id="27" value="" style="shape=hexagon;perimeter=hexagonPerimeter2;whiteSpace=wrap;html=1;fixedSize=1;strokeColor=#000000;strokeWidth=2;fillColor=#B2A0BB;" vertex="1" parent="1">
                    <mxGeometry x="430" y="390" width="90" height="80" as="geometry"/>
                </mxCell>
                <mxCell id="28" value="" style="shape=hexagon;perimeter=hexagonPerimeter2;whiteSpace=wrap;html=1;fixedSize=1;strokeColor=#000000;strokeWidth=2;fillColor=#E9E7EF;" vertex="1" parent="1">
                    <mxGeometry x="430" y="310" width="90" height="80" as="geometry"/>
                </mxCell>
                <mxCell id="29" value="" style="shape=hexagon;perimeter=hexagonPerimeter2;whiteSpace=wrap;html=1;fixedSize=1;strokeColor=#000000;strokeWidth=2;fillColor=#B2A0BB;" vertex="1" parent="1">
                    <mxGeometry x="500" y="270" width="90" height="80" as="geometry"/>
                </mxCell>
                <mxCell id="30" value="" style="shape=hexagon;perimeter=hexagonPerimeter2;whiteSpace=wrap;html=1;fixedSize=1;strokeColor=#000000;strokeWidth=2;fillColor=#B2A0BB;" vertex="1" parent="1">
                    <mxGeometry x="290" y="390" width="90" height="80" as="geometry"/>
                </mxCell>
                <mxCell id="31" value="" style="shape=hexagon;perimeter=hexagonPerimeter2;whiteSpace=wrap;html=1;fixedSize=1;strokeColor=#000000;strokeWidth=2;fillColor=#E9E7EF;" vertex="1" parent="1">
                    <mxGeometry x="360" y="430" width="90" height="80" as="geometry"/>
                </mxCell>
                <mxCell id="32" value="" style="shape=hexagon;perimeter=hexagonPerimeter2;whiteSpace=wrap;html=1;fixedSize=1;strokeColor=#000000;strokeWidth=2;fillColor=#B0B2BF;" vertex="1" parent="1">
                    <mxGeometry x="360" y="350" width="90" height="80" as="geometry"/>
                </mxCell>
                <mxCell id="33" value="" style="shape=hexagon;perimeter=hexagonPerimeter2;whiteSpace=wrap;html=1;fixedSize=1;strokeColor=#000000;strokeWidth=2;fillColor=#B0B2BF;" vertex="1" parent="1">
                    <mxGeometry x="290" y="470" width="90" height="80" as="geometry"/>
                </mxCell>
                <mxCell id="34" value="" style="shape=hexagon;perimeter=hexagonPerimeter2;whiteSpace=wrap;html=1;fixedSize=1;strokeColor=#000000;strokeWidth=2;fillColor=#E9E7EF;" vertex="1" parent="1">
                    <mxGeometry x="220" y="430" width="90" height="80" as="geometry"/>
                </mxCell>
                <mxCell id="35" value="" style="shape=hexagon;perimeter=hexagonPerimeter2;whiteSpace=wrap;html=1;fixedSize=1;strokeColor=#000000;strokeWidth=2;fillColor=#B0B2BF;" vertex="1" parent="1">
                    <mxGeometry x="220" y="350" width="90" height="80" as="geometry"/>
                </mxCell>
                <mxCell id="36" value="" style="shape=hexagon;perimeter=hexagonPerimeter2;whiteSpace=wrap;html=1;fixedSize=1;strokeColor=#000000;strokeWidth=2;fillColor=#E9E7EF;" vertex="1" parent="1">
                    <mxGeometry x="290" y="310" width="90" height="80" as="geometry"/>
                </mxCell>
                <mxCell id="37" value="" style="shape=hexagon;perimeter=hexagonPerimeter2;whiteSpace=wrap;html=1;fixedSize=1;strokeColor=#000000;strokeWidth=2;fillColor=#B0B2BF;" vertex="1" parent="1">
                    <mxGeometry x="150" y="230" width="90" height="80" as="geometry"/>
                </mxCell>
                <mxCell id="38" value="" style="shape=hexagon;perimeter=hexagonPerimeter2;whiteSpace=wrap;html=1;fixedSize=1;strokeColor=#000000;strokeWidth=2;fillColor=#B2A0BB;" vertex="1" parent="1">
                    <mxGeometry x="220" y="270" width="90" height="80" as="geometry"/>
                </mxCell>
                <mxCell id="39" value="" style="shape=hexagon;perimeter=hexagonPerimeter2;whiteSpace=wrap;html=1;fixedSize=1;strokeColor=#000000;strokeWidth=2;fillColor=#E9E7EF;" vertex="1" parent="1">
                    <mxGeometry x="220" y="190" width="90" height="80" as="geometry"/>
                </mxCell>
                <mxCell id="40" value="" style="shape=hexagon;perimeter=hexagonPerimeter2;whiteSpace=wrap;html=1;fixedSize=1;strokeColor=#000000;strokeWidth=2;fillColor=#E9E7EF;" vertex="1" parent="1">
                    <mxGeometry x="150" y="310" width="90" height="80" as="geometry"/>
                </mxCell>
                <mxCell id="41" value="" style="shape=hexagon;perimeter=hexagonPerimeter2;whiteSpace=wrap;html=1;fixedSize=1;strokeColor=#000000;strokeWidth=2;fillColor=#B2A0BB;" vertex="1" parent="1">
                    <mxGeometry x="80" y="270" width="90" height="80" as="geometry"/>
                </mxCell>
                <mxCell id="42" value="" style="shape=hexagon;perimeter=hexagonPerimeter2;whiteSpace=wrap;html=1;fixedSize=1;strokeColor=#000000;strokeWidth=2;fillColor=#E9E7EF;" vertex="1" parent="1">
                    <mxGeometry x="80" y="190" width="90" height="80" as="geometry"/>
                </mxCell>
                <mxCell id="43" value="" style="shape=hexagon;perimeter=hexagonPerimeter2;whiteSpace=wrap;html=1;fixedSize=1;strokeColor=#000000;strokeWidth=2;fillColor=#B2A0BB;" vertex="1" parent="1">
                    <mxGeometry x="150" y="150" width="90" height="80" as="geometry"/>
                </mxCell>
                <mxCell id="44" value="" style="shape=hexagon;perimeter=hexagonPerimeter2;whiteSpace=wrap;html=1;fixedSize=1;strokeColor=#000000;strokeWidth=2;fillColor=#E9E7EF;" vertex="1" parent="1">
                    <mxGeometry x="80" y="430" width="90" height="80" as="geometry"/>
                </mxCell>
                <mxCell id="45" value="" style="shape=hexagon;perimeter=hexagonPerimeter2;whiteSpace=wrap;html=1;fixedSize=1;strokeColor=#000000;strokeWidth=2;fillColor=#B0B2BF;" vertex="1" parent="1">
                    <mxGeometry x="150" y="470" width="90" height="80" as="geometry"/>
                </mxCell>
                <mxCell id="46" value="" style="shape=hexagon;perimeter=hexagonPerimeter2;whiteSpace=wrap;html=1;fixedSize=1;strokeColor=#000000;strokeWidth=2;fillColor=#B2A0BB;" vertex="1" parent="1">
                    <mxGeometry x="150" y="390" width="90" height="80" as="geometry"/>
                </mxCell>
                <mxCell id="47" value="" style="shape=hexagon;perimeter=hexagonPerimeter2;whiteSpace=wrap;html=1;fixedSize=1;strokeColor=#000000;strokeWidth=2;fillColor=#B2A0BB;" vertex="1" parent="1">
                    <mxGeometry x="80" y="510" width="90" height="80" as="geometry"/>
                </mxCell>
                <mxCell id="48" value="" style="shape=hexagon;perimeter=hexagonPerimeter2;whiteSpace=wrap;html=1;fixedSize=1;strokeColor=#000000;strokeWidth=2;fillColor=#B0B2BF;" vertex="1" parent="1">
                    <mxGeometry x="10" y="470" width="90" height="80" as="geometry"/>
                </mxCell>
                <mxCell id="49" value="" style="shape=hexagon;perimeter=hexagonPerimeter2;whiteSpace=wrap;html=1;fixedSize=1;strokeColor=#000000;strokeWidth=2;fillColor=#B2A0BB;" vertex="1" parent="1">
                    <mxGeometry x="10" y="390" width="90" height="80" as="geometry"/>
                </mxCell>
                <mxCell id="50" value="" style="shape=hexagon;perimeter=hexagonPerimeter2;whiteSpace=wrap;html=1;fixedSize=1;strokeColor=#000000;strokeWidth=2;fillColor=#B0B2BF;" vertex="1" parent="1">
                    <mxGeometry x="80" y="350" width="90" height="80" as="geometry"/>
                </mxCell>
                <mxCell id="51" value="" style="shape=hexagon;perimeter=hexagonPerimeter2;whiteSpace=wrap;html=1;fixedSize=1;strokeColor=#000000;strokeWidth=2;fillColor=#E9E7EF;" vertex="1" parent="1">
                    <mxGeometry x="430" y="550" width="90" height="80" as="geometry"/>
                </mxCell>
                <mxCell id="52" value="" style="shape=hexagon;perimeter=hexagonPerimeter2;whiteSpace=wrap;html=1;fixedSize=1;strokeColor=#000000;strokeWidth=2;fillColor=#B0B2BF;" vertex="1" parent="1">
                    <mxGeometry x="500" y="590" width="90" height="80" as="geometry"/>
                </mxCell>
                <mxCell id="53" value="" style="shape=hexagon;perimeter=hexagonPerimeter2;whiteSpace=wrap;html=1;fixedSize=1;strokeColor=#000000;strokeWidth=2;fillColor=#B2A0BB;" vertex="1" parent="1">
                    <mxGeometry x="500" y="510" width="90" height="80" as="geometry"/>
                </mxCell>
                <mxCell id="54" value="" style="shape=hexagon;perimeter=hexagonPerimeter2;whiteSpace=wrap;html=1;fixedSize=1;strokeColor=#000000;strokeWidth=2;fillColor=#B2A0BB;" vertex="1" parent="1">
                    <mxGeometry x="430" y="630" width="90" height="80" as="geometry"/>
                </mxCell>
                <mxCell id="55" value="" style="shape=hexagon;perimeter=hexagonPerimeter2;whiteSpace=wrap;html=1;fixedSize=1;strokeColor=#000000;strokeWidth=2;fillColor=#B0B2BF;" vertex="1" parent="1">
                    <mxGeometry x="360" y="590" width="90" height="80" as="geometry"/>
                </mxCell>
                <mxCell id="56" value="" style="shape=hexagon;perimeter=hexagonPerimeter2;whiteSpace=wrap;html=1;fixedSize=1;strokeColor=#000000;strokeWidth=2;fillColor=#B2A0BB;" vertex="1" parent="1">
                    <mxGeometry x="360" y="510" width="90" height="80" as="geometry"/>
                </mxCell>
                <mxCell id="57" value="" style="shape=hexagon;perimeter=hexagonPerimeter2;whiteSpace=wrap;html=1;fixedSize=1;strokeColor=#000000;strokeWidth=2;fillColor=#B0B2BF;" vertex="1" parent="1">
                    <mxGeometry x="430" y="470" width="90" height="80" as="geometry"/>
                </mxCell>
                <mxCell id="58" value="" style="shape=hexagon;perimeter=hexagonPerimeter2;whiteSpace=wrap;html=1;fixedSize=1;strokeColor=#000000;strokeWidth=2;fillColor=#B0B2BF;" vertex="1" parent="1">
                    <mxGeometry x="220" y="590" width="90" height="80" as="geometry"/>
                </mxCell>
                <mxCell id="59" value="" style="shape=hexagon;perimeter=hexagonPerimeter2;whiteSpace=wrap;html=1;fixedSize=1;strokeColor=#000000;strokeWidth=2;fillColor=#B2A0BB;" vertex="1" parent="1">
                    <mxGeometry x="290" y="630" width="90" height="80" as="geometry"/>
                </mxCell>
                <mxCell id="60" value="" style="shape=hexagon;perimeter=hexagonPerimeter2;whiteSpace=wrap;html=1;fixedSize=1;strokeColor=#000000;strokeWidth=2;fillColor=#E9E7EF;" vertex="1" parent="1">
                    <mxGeometry x="290" y="550" width="90" height="80" as="geometry"/>
                </mxCell>
                <mxCell id="61" value="" style="shape=hexagon;perimeter=hexagonPerimeter2;whiteSpace=wrap;html=1;fixedSize=1;strokeColor=#000000;strokeWidth=2;fillColor=#E9E7EF;" vertex="1" parent="1">
                    <mxGeometry x="220" y="670" width="90" height="80" as="geometry"/>
                </mxCell>
                <mxCell id="62" value="" style="shape=hexagon;perimeter=hexagonPerimeter2;whiteSpace=wrap;html=1;fixedSize=1;strokeColor=#000000;strokeWidth=2;fillColor=#B2A0BB;" vertex="1" parent="1">
                    <mxGeometry x="150" y="630" width="90" height="80" as="geometry"/>
                </mxCell>
                <mxCell id="63" value="" style="shape=hexagon;perimeter=hexagonPerimeter2;whiteSpace=wrap;html=1;fixedSize=1;strokeColor=#000000;strokeWidth=2;fillColor=#E9E7EF;" vertex="1" parent="1">
                    <mxGeometry x="150" y="550" width="90" height="80" as="geometry"/>
                </mxCell>
                <mxCell id="64" value="" style="shape=hexagon;perimeter=hexagonPerimeter2;whiteSpace=wrap;html=1;fixedSize=1;strokeColor=#000000;strokeWidth=2;fillColor=#B2A0BB;" vertex="1" parent="1">
                    <mxGeometry x="220" y="510" width="90" height="80" as="geometry"/>
                </mxCell>
                <mxCell id="65" value="" style="shape=hexagon;perimeter=hexagonPerimeter2;whiteSpace=wrap;html=1;fixedSize=1;strokeColor=#000000;strokeWidth=2;fillColor=#B2A0BB;" vertex="1" parent="1">
                    <mxGeometry x="640" y="510" width="90" height="80" as="geometry"/>
                </mxCell>
                <mxCell id="68" value="" style="shape=hexagon;perimeter=hexagonPerimeter2;whiteSpace=wrap;html=1;fixedSize=1;strokeColor=#000000;strokeWidth=2;fillColor=#B0B2BF;" vertex="1" parent="1">
                    <mxGeometry x="640" y="590" width="90" height="80" as="geometry"/>
                </mxCell>
                <mxCell id="69" value="" style="shape=hexagon;perimeter=hexagonPerimeter2;whiteSpace=wrap;html=1;fixedSize=1;strokeColor=#000000;strokeWidth=2;fillColor=#E9E7EF;" vertex="1" parent="1">
                    <mxGeometry x="570" y="550" width="90" height="80" as="geometry"/>
                </mxCell>
                <mxCell id="70" value="" style="shape=hexagon;perimeter=hexagonPerimeter2;whiteSpace=wrap;html=1;fixedSize=1;strokeColor=#000000;strokeWidth=2;fillColor=#B0B2BF;" vertex="1" parent="1">
                    <mxGeometry x="570" y="470" width="90" height="80" as="geometry"/>
                </mxCell>
                <mxCell id="71" value="" style="shape=hexagon;perimeter=hexagonPerimeter2;whiteSpace=wrap;html=1;fixedSize=1;strokeColor=#000000;strokeWidth=2;fillColor=#E9E7EF;" vertex="1" parent="1">
                    <mxGeometry x="640" y="430" width="90" height="80" as="geometry"/>
                </mxCell>
                <mxCell id="76" value="" style="shape=hexagon;perimeter=hexagonPerimeter2;whiteSpace=wrap;html=1;fixedSize=1;strokeColor=#000000;strokeWidth=2;fillColor=#B0B2BF;" vertex="1" parent="1">
                    <mxGeometry x="640" y="350" width="90" height="80" as="geometry"/>
                </mxCell>
                <mxCell id="77" value="" style="shape=hexagon;perimeter=hexagonPerimeter2;whiteSpace=wrap;html=1;fixedSize=1;strokeColor=#000000;strokeWidth=2;fillColor=#B2A0BB;" vertex="1" parent="1">
                    <mxGeometry x="640" y="270" width="90" height="80" as="geometry"/>
                </mxCell>
                <mxCell id="82" value="" style="shape=hexagon;perimeter=hexagonPerimeter2;whiteSpace=wrap;html=1;fixedSize=1;strokeColor=#000000;strokeWidth=2;fillColor=#E9E7EF;" vertex="1" parent="1">
                    <mxGeometry x="430" y="70" width="90" height="80" as="geometry"/>
                </mxCell>
                <mxCell id="83" value="" style="shape=hexagon;perimeter=hexagonPerimeter2;whiteSpace=wrap;html=1;fixedSize=1;strokeColor=#000000;strokeWidth=2;fillColor=#B2A0BB;" vertex="1" parent="1">
                    <mxGeometry x="360" y="30" width="90" height="80" as="geometry"/>
                </mxCell>
                <mxCell id="86" value="" style="shape=hexagon;perimeter=hexagonPerimeter2;whiteSpace=wrap;html=1;fixedSize=1;strokeColor=#000000;strokeWidth=2;fillColor=#b2a0bb;" vertex="1" parent="1">
                    <mxGeometry x="220" y="30" width="90" height="80" as="geometry"/>
                </mxCell>
                <mxCell id="87" value="" style="shape=hexagon;perimeter=hexagonPerimeter2;whiteSpace=wrap;html=1;fixedSize=1;strokeColor=#000000;strokeWidth=2;fillColor=#e9e7ef;" vertex="1" parent="1">
                    <mxGeometry x="290" y="70" width="90" height="80" as="geometry"/>
                </mxCell>
                <mxCell id="88" value="" style="shape=hexagon;perimeter=hexagonPerimeter2;whiteSpace=wrap;html=1;fixedSize=1;strokeColor=#000000;strokeWidth=2;fillColor=#b0b2bf;" vertex="1" parent="1">
                    <mxGeometry x="290" y="-10" width="90" height="80" as="geometry"/>
                </mxCell>
                <mxCell id="89" value="" style="shape=hexagon;perimeter=hexagonPerimeter2;whiteSpace=wrap;html=1;fixedSize=1;strokeColor=#000000;strokeWidth=2;fillColor=#B0B2BF;" vertex="1" parent="1">
                    <mxGeometry x="220" y="110" width="90" height="80" as="geometry"/>
                </mxCell>
                <mxCell id="90" value="" style="shape=hexagon;perimeter=hexagonPerimeter2;whiteSpace=wrap;html=1;fixedSize=1;strokeColor=#000000;strokeWidth=2;fillColor=#E9E7EF;" vertex="1" parent="1">
                    <mxGeometry x="150" y="70" width="90" height="80" as="geometry"/>
                </mxCell>
                <mxCell id="93" value="" style="shape=hexagon;perimeter=hexagonPerimeter2;whiteSpace=wrap;html=1;fixedSize=1;strokeColor=#000000;strokeWidth=2;fillColor=#B2A0BB;" vertex="1" parent="1">
                    <mxGeometry x="360" y="750" width="90" height="80" as="geometry"/>
                </mxCell>
                <mxCell id="95" value="" style="shape=hexagon;perimeter=hexagonPerimeter2;whiteSpace=wrap;html=1;fixedSize=1;strokeColor=#000000;strokeWidth=2;fillColor=#B0B2BF;" vertex="1" parent="1">
                    <mxGeometry x="430" y="710" width="90" height="80" as="geometry"/>
                </mxCell>
                <mxCell id="97" value="" style="shape=hexagon;perimeter=hexagonPerimeter2;whiteSpace=wrap;html=1;fixedSize=1;strokeColor=#000000;strokeWidth=2;fillColor=#E9E7EF;" vertex="1" parent="1">
                    <mxGeometry x="290" y="790" width="90" height="80" as="geometry"/>
                </mxCell>
                <mxCell id="98" value="" style="shape=hexagon;perimeter=hexagonPerimeter2;whiteSpace=wrap;html=1;fixedSize=1;strokeColor=#000000;strokeWidth=2;fillColor=#B0B2BF;" vertex="1" parent="1">
                    <mxGeometry x="290" y="710" width="90" height="80" as="geometry"/>
                </mxCell>
                <mxCell id="99" value="" style="shape=hexagon;perimeter=hexagonPerimeter2;whiteSpace=wrap;html=1;fixedSize=1;strokeColor=#000000;strokeWidth=2;fillColor=#E9E7EF;" vertex="1" parent="1">
                    <mxGeometry x="360" y="670" width="90" height="80" as="geometry"/>
                </mxCell>
                <mxCell id="105" value="" style="shape=hexagon;perimeter=hexagonPerimeter2;whiteSpace=wrap;html=1;fixedSize=1;strokeColor=#000000;strokeWidth=2;fillColor=#E9E7EF;" vertex="1" parent="1">
                    <mxGeometry x="500" y="670" width="90" height="80" as="geometry"/>
                </mxCell>
                <mxCell id="106" value="" style="shape=hexagon;perimeter=hexagonPerimeter2;whiteSpace=wrap;html=1;fixedSize=1;strokeColor=#000000;strokeWidth=2;fillColor=#B2A0BB;" vertex="1" parent="1">
                    <mxGeometry x="570" y="630" width="90" height="80" as="geometry"/>
                </mxCell>
                <mxCell id="109" value="" style="shape=hexagon;perimeter=hexagonPerimeter2;whiteSpace=wrap;html=1;fixedSize=1;strokeColor=#000000;strokeWidth=2;fillColor=#B2A0BB;" vertex="1" parent="1">
                    <mxGeometry x="220" y="750" width="90" height="80" as="geometry"/>
                </mxCell>
                <mxCell id="113" value="" style="shape=hexagon;perimeter=hexagonPerimeter2;whiteSpace=wrap;html=1;fixedSize=1;strokeColor=#000000;strokeWidth=2;fillColor=#B0B2BF;" vertex="1" parent="1">
                    <mxGeometry x="150" y="710" width="90" height="80" as="geometry"/>
                </mxCell>
                <mxCell id="114" value="" style="shape=hexagon;perimeter=hexagonPerimeter2;whiteSpace=wrap;html=1;fixedSize=1;strokeColor=#000000;strokeWidth=2;fillColor=#B2A0BB;" vertex="1" parent="1">
                    <mxGeometry x="10" y="630" width="90" height="80" as="geometry"/>
                </mxCell>
                <mxCell id="115" value="" style="shape=hexagon;perimeter=hexagonPerimeter2;whiteSpace=wrap;html=1;fixedSize=1;strokeColor=#000000;strokeWidth=2;fillColor=#E9E7EF;" vertex="1" parent="1">
                    <mxGeometry x="80" y="670" width="90" height="80" as="geometry"/>
                </mxCell>
                <mxCell id="116" value="" style="shape=hexagon;perimeter=hexagonPerimeter2;whiteSpace=wrap;html=1;fixedSize=1;strokeColor=#000000;strokeWidth=2;fillColor=#B0B2BF;" vertex="1" parent="1">
                    <mxGeometry x="80" y="590" width="90" height="80" as="geometry"/>
                </mxCell>
                <mxCell id="119" value="" style="shape=hexagon;perimeter=hexagonPerimeter2;whiteSpace=wrap;html=1;fixedSize=1;strokeColor=#000000;strokeWidth=2;fillColor=#B0B2BF;" vertex="1" parent="1">
                    <mxGeometry x="-60" y="590" width="90" height="80" as="geometry"/>
                </mxCell>
                <mxCell id="120" value="" style="shape=hexagon;perimeter=hexagonPerimeter2;whiteSpace=wrap;html=1;fixedSize=1;strokeColor=#000000;strokeWidth=2;fillColor=#E9E7EF;" vertex="1" parent="1">
                    <mxGeometry x="10" y="550" width="90" height="80" as="geometry"/>
                </mxCell>
                <mxCell id="135" value="" style="shape=hexagon;perimeter=hexagonPerimeter2;whiteSpace=wrap;html=1;fixedSize=1;strokeColor=#000000;strokeWidth=2;fillColor=#B2A0BB;" vertex="1" parent="1">
                    <mxGeometry x="-60" y="270" width="90" height="80" as="geometry"/>
                </mxCell>
                <mxCell id="136" value="" style="shape=hexagon;perimeter=hexagonPerimeter2;whiteSpace=wrap;html=1;fixedSize=1;strokeColor=#000000;strokeWidth=2;fillColor=#E9E7EF;" vertex="1" parent="1">
                    <mxGeometry x="10" y="310" width="90" height="80" as="geometry"/>
                </mxCell>
                <mxCell id="137" value="" style="shape=hexagon;perimeter=hexagonPerimeter2;whiteSpace=wrap;html=1;fixedSize=1;strokeColor=#000000;strokeWidth=2;fillColor=#B0B2BF;" vertex="1" parent="1">
                    <mxGeometry x="10" y="230" width="90" height="80" as="geometry"/>
                </mxCell>
                <mxCell id="138" value="" style="shape=hexagon;perimeter=hexagonPerimeter2;whiteSpace=wrap;html=1;fixedSize=1;strokeColor=#000000;strokeWidth=2;fillColor=#B0B2BF;" vertex="1" parent="1">
                    <mxGeometry x="-60" y="350" width="90" height="80" as="geometry"/>
                </mxCell>
                <mxCell id="141" value="" style="shape=hexagon;perimeter=hexagonPerimeter2;whiteSpace=wrap;html=1;fixedSize=1;strokeColor=#000000;strokeWidth=2;fillColor=#E9E7EF;" vertex="1" parent="1">
                    <mxGeometry x="-60" y="190" width="90" height="80" as="geometry"/>
                </mxCell>
                <mxCell id="143" value="" style="shape=hexagon;perimeter=hexagonPerimeter2;whiteSpace=wrap;html=1;fixedSize=1;strokeColor=#000000;strokeWidth=2;fillColor=#B2A0BB;" vertex="1" parent="1">
                    <mxGeometry x="-60" y="510" width="90" height="80" as="geometry"/>
                </mxCell>
                <mxCell id="144" value="" style="shape=hexagon;perimeter=hexagonPerimeter2;whiteSpace=wrap;html=1;fixedSize=1;strokeColor=#000000;strokeWidth=2;fillColor=#E9E7EF;" vertex="1" parent="1">
                    <mxGeometry x="-60" y="430" width="90" height="80" as="geometry"/>
                </mxCell>
                <mxCell id="150" value="" style="shape=hexagon;perimeter=hexagonPerimeter2;whiteSpace=wrap;html=1;fixedSize=1;strokeColor=#000000;strokeWidth=2;fillColor=#B0B2BF;" vertex="1" parent="1">
                    <mxGeometry x="80" y="110" width="90" height="80" as="geometry"/>
                </mxCell>
                <mxCell id="152" value="" style="shape=hexagon;perimeter=hexagonPerimeter2;whiteSpace=wrap;html=1;fixedSize=1;strokeColor=#000000;strokeWidth=2;fillColor=#B2A0BB;" vertex="1" parent="1">
                    <mxGeometry x="10" y="150" width="90" height="80" as="geometry"/>
                </mxCell>
            </root>
        </mxGraphModel>
    </diagram>
</mxfile>